<?xml version="1.0" encoding="UTF-8" standalone="no"?>
<!DOCTYPE svg PUBLIC "-//W3C//DTD SVG 1.1//EN" "http://www.w3.org/Graphics/SVG/1.1/DTD/svg11.dtd">
<svg version="1.1" xmlns="http://www.w3.org/2000/svg" xmlns:xlink="http://www.w3.org/1999/xlink" preserveAspectRatio="xMidYMid meet" viewBox="0 0 600 530" width="600" height="530"><defs><path d="" id="h66WT6iwzw"></path><path d="" id="f3A8ovn9RS"></path><path d="M561.31 166.08L564.18 10.14L560.42 141.65L559.03 190.52C559.44 203.74 559.69 212 559.79 215.31C560.62 242.03 539.18 264.15 512.45 264.15C511.01 264.15 507.4 264.15 501.64 264.15C335.92 264.64 220.23 264.98 154.57 265.17C138.66 265.22 125.69 265.26 115.65 265.29C114.66 265.29 113.66 265.31 112.68 265.35C80.81 266.47 55.5 284.09 55.57 305.57C55.57 307.83 55.59 313.5 55.62 322.57L55.89 518.21L55.89 415.36" id="a3m05OrsYk"></path><path d="" id="c2w0kxSygi"></path><path d="" id="e7o1tTYfl"></path><path d="" id="j1GtEsSauO"></path><path d="M32 493.22L55.57 518.21" id="bnVgslr5h"></path><path d="M55.57 518.21L78 493.22" id="f9gu3mms7"></path><path d="" id="a75716q2Y"></path><path d="M535 30.22L564.18 10.14" id="bNIXAY7sX"></path><path d="M589 30.22L564.18 12.22" id="b3MeLDIMzx"></path><path d="" id="a2hDeHtDL2"></path></defs><g><g><g><g><use xlink:href="#h66WT6iwzw" opacity="1" fill-opacity="0" stroke="#000000" stroke-width="2" stroke-opacity="1"></use></g></g><g><g><use xlink:href="#f3A8ovn9RS" opacity="1" fill-opacity="0" stroke="white" stroke-width="2" stroke-opacity="1"></use></g></g><g><g><use xlink:href="#a3m05OrsYk" opacity="1" fill-opacity="0" stroke="white" stroke-width="3" stroke-opacity="1"></use></g></g><g><g><use xlink:href="#c2w0kxSygi" opacity="1" fill-opacity="0" stroke="white" stroke-width="2" stroke-opacity="1"></use></g></g><g><g><use xlink:href="#e7o1tTYfl" opacity="1" fill-opacity="0" stroke="white" stroke-width="2" stroke-opacity="1"></use></g></g><g><g><use xlink:href="#j1GtEsSauO" opacity="1" fill-opacity="0" stroke="white" stroke-width="2" stroke-opacity="1"></use></g></g><g><g><use xlink:href="#bnVgslr5h" opacity="1" fill-opacity="0" stroke="white" stroke-width="2" stroke-opacity="1"></use></g></g><g><g><use xlink:href="#f9gu3mms7" opacity="1" fill-opacity="0" stroke="white" stroke-width="2" stroke-opacity="1"></use></g></g><g><g><use xlink:href="#a75716q2Y" opacity="1" fill-opacity="0" stroke="white" stroke-width="2" stroke-opacity="1"></use></g></g><g><g><use xlink:href="#bNIXAY7sX" opacity="1" fill-opacity="0" stroke="white" stroke-width="2" stroke-opacity="1"></use></g></g><g><g><use xlink:href="#b3MeLDIMzx" opacity="1" fill-opacity="0" stroke="white" stroke-width="2" stroke-opacity="1"></use></g></g><g><g><use xlink:href="#a2hDeHtDL2" opacity="1" fill-opacity="0" stroke="white" stroke-width="2" stroke-opacity="1"></use></g></g></g></g></svg>