<?xml version="1.0" encoding="UTF-8" standalone="no"?>
<!DOCTYPE svg PUBLIC "-//W3C//DTD SVG 1.1//EN" "http://www.w3.org/Graphics/SVG/1.1/DTD/svg11.dtd">
<svg version="1.1" xmlns="http://www.w3.org/2000/svg" xmlns:xlink="http://www.w3.org/1999/xlink" preserveAspectRatio="xMidYMid meet" viewBox="0 0 600 530" width="600" height="530"><defs><path d="M561.31 362.27L564.18 518.21L560.42 386.7L559.03 337.83C559.44 324.61 559.69 316.34 559.79 313.04C560.62 286.31 539.18 264.2 512.45 264.2C511.01 264.2 507.4 264.2 501.64 264.2C335.92 263.71 220.23 263.37 154.57 263.17C138.66 263.13 125.69 263.09 115.65 263.06C114.66 263.05 113.66 263.04 112.68 263C80.81 261.87 55.5 244.26 55.57 222.78C55.57 220.51 55.59 214.85 55.62 205.78L55.89 10.14L55.89 112.99" id="giPeaBuiV"></path><path d="" id="br6lQP5L"></path><path d="" id="c3Lj4dlR9Z"></path><path d="" id="aeu4ukTFj"></path><path d="" id="b3q7igplZ"></path><path d="" id="b1yYUhNs8"></path><path d="" id="a2hDeHtDL2"></path><path d="M32 35.13L55.57 10.14" id="c5VPeWL4b"></path><path d="M55.57 10.14L78 35.13" id="aS5ARmRa2"></path><path d="" id="b66CXPG6q"></path><path d="M535 498.13L564.18 518.21" id="bmxYcT5aP"></path><path d="M589 498.13L564.18 516.13" id="a2bSi9lOya"></path></defs><g><g><g><g><use xlink:href="#giPeaBuiV" opacity="1" fill-opacity="0" stroke="white" stroke-width="3" stroke-opacity="1"></use></g></g><g><g><use xlink:href="#br6lQP5L" opacity="1" fill-opacity="0" stroke="white" stroke-width="2" stroke-opacity="1"></use></g></g><g><g><use xlink:href="#c3Lj4dlR9Z" opacity="1" fill-opacity="0" stroke="white" stroke-width="2" stroke-opacity="1"></use></g></g><g><g><use xlink:href="#aeu4ukTFj" opacity="1" fill-opacity="0" stroke="white" stroke-width="2" stroke-opacity="1"></use></g></g><g><g><use xlink:href="#b3q7igplZ" opacity="1" fill-opacity="0" stroke="white" stroke-width="2" stroke-opacity="1"></use></g></g><g><g><use xlink:href="#b1yYUhNs8" opacity="1" fill-opacity="0" stroke="white" stroke-width="2" stroke-opacity="1"></use></g></g><g><g><use xlink:href="#a2hDeHtDL2" opacity="1" fill-opacity="0" stroke="white" stroke-width="2" stroke-opacity="1"></use></g></g><g><g><use xlink:href="#c5VPeWL4b" opacity="1" fill-opacity="0" stroke="white" stroke-width="2" stroke-opacity="1"></use></g></g><g><g><use xlink:href="#aS5ARmRa2" opacity="1" fill-opacity="0" stroke="white" stroke-width="2" stroke-opacity="1"></use></g></g><g><g><use xlink:href="#b66CXPG6q" opacity="1" fill-opacity="0" stroke="white" stroke-width="2" stroke-opacity="1"></use></g></g><g><g><use xlink:href="#bmxYcT5aP" opacity="1" fill-opacity="0" stroke="white" stroke-width="2" stroke-opacity="1"></use></g></g><g><g><use xlink:href="#a2bSi9lOya" opacity="1" fill-opacity="0" stroke="white" stroke-width="2" stroke-opacity="1"></use></g></g></g></g></svg>